# xmcd
#
# Track frame offsets:
#	150
#	11643
#	26029
#	41042
#	53439
#	70391
#	82466
#	95331
#	104992
#	116795
#	128972
#	141611
#
# Disc length: 2016 seconds
#
# Revision: 0
# Processed by: cddbd v1.5.2PL0 Copyright (c) Steve Scherf et al.
# Submitted via: audiograbber 1.83.01
#
DISCID=ba07de0c
DTITLE=The Harmans - Timeless and True
DYEAR=2008
DGENRE=Bluegrass
TTITLE0=Wild Mountain Honey
TTITLE1=Timeless And True Love
TTITLE2=Gunfighers Lament
TTITLE3=Katy Hill
TTITLE4=Casualties Along The Way
TTITLE5=Just As Long (As You Love Me)
TTITLE6=Dance With Me
TTITLE7=On The Sea Of Life
TTITLE8=Gold Watch And Chain
TTITLE9=Hot Corn, Cold Corn
TTITLE10=Until Then
TTITLE11=Dooley
EXTD=
EXTT0=
EXTT1=
EXTT2=
EXTT3=
EXTT4=
EXTT5=
EXTT6=
EXTT7=
EXTT8=
EXTT9=
EXTT10=
EXTT11=
PLAYORDER=
